<svg xmlns="http://www.w3.org/2000/svg" width="256" height="256" viewBox="0 0 256 256">
  <g fill="none" transform="translate(0 46)">
    <path fill="#19223C" d="M139.541823,0.229230793 L9.01128393,82.4009443 C2.8630998,86.1192393 -0.141750977,90.2823869 0.00513422689,94.8945836 L0.00513422689,107.400813 C0.152019515,112.017207 3.22821456,116.10901 9.23790689,119.68042 L73.8379541,156.968289 C74.2215344,157.192813 74.6496,157.330885 75.0923541,157.372433 C75.5346885,157.41398 75.9808,157.358164 76.3996328,157.208761 C76.8180459,157.059777 77.1991082,156.820984 77.5159607,156.508748 C77.8323934,156.196931 78.0766426,155.819646 78.2319213,155.402911 L92.7357902,120.351895 L61.973823,102.935502 C61.0870557,102.475541 60.341718,101.783921 59.8167082,100.933666 C59.4234754,100.294925 59.1616,99.584 59.0461902,98.842859 C58.9303607,98.101718 58.9639344,97.3450492 59.1439738,96.616918 C59.3240131,95.8883672 59.6471607,95.2034623 60.0949508,94.6016525 C60.542741,93.9998426 61.105941,93.4928787 61.7513967,93.110977 L118.226675,58.5006164 L141.514282,1.79460616 C141.607449,1.52901246 141.615843,1.24104184 141.538623,0.970428852 C141.461403,0.699820066 141.301508,0.459906098 141.08202,0.28378817 C140.86379,0.109838689 140.59562,0.0106306308 140.316957,-3.0289901e-09 C140.037875,-0.00901665574 139.76341,0.071064341 139.53343,0.229230793 L139.541823,0.229230793 Z"/>
    <path fill="#67A4AC" d="M246.768052,46.0027803 L183.05343,7.37632525 C182.684118,7.14596721 182.269482,6.99748721 181.837639,6.94083148 C181.406216,6.8842177 180.967239,6.92077115 180.550925,7.04801574 C180.13461,7.17526033 179.75019,7.39030033 179.424105,7.67857311 C179.0976,7.96688787 178.836984,8.32172066 178.659462,8.71927607 L163.719134,43.7701246 L194.040446,61.8579934 C194.913364,62.332223 195.639397,63.0414689 196.1472,63.9059934 C196.655843,64.7734557 196.924013,65.7609443 196.924013,66.766059 C196.924013,67.7715934 196.655843,68.759082 196.1472,69.6261246 C195.643593,70.4893902 194.915462,71.2003148 194.040446,71.682518 L137.128708,105.172354 L112.955593,161.437797 C112.721416,161.705128 112.60181,162.053875 112.621954,162.408918 C112.642518,162.763541 112.801574,163.095921 113.064708,163.334715 C113.193548,163.452223 113.34463,163.542033 113.509141,163.600367 C113.673233,163.658282 113.847397,163.683043 114.021561,163.672551 C114.195305,163.662479 114.365272,163.617993 114.52181,163.541193 C114.678348,163.464393 114.817679,163.356957 114.932249,163.2256 L156.68543,137.994911 L173.165954,161.66442 C173.526033,162.209993 174.014951,162.657784 174.589902,162.968761 C175.164433,163.280157 175.806951,163.444669 176.46038,163.448026 L216.014479,163.448026 C216.735475,163.450544 217.443462,163.253298 218.059541,162.878531 C218.676039,162.503764 219.176289,161.966164 219.506151,161.324485 C219.844826,160.681548 220.005561,159.959292 219.970728,159.232839 C219.935895,158.506807 219.707593,157.803016 219.308905,157.194911 L192.500249,116.10901 L246.776446,83.2906492 C252.928839,79.5681574 256.005036,75.4008131 256.005036,70.7844197 L256.005036,58.5048131 C256.005036,53.8884197 252.928839,49.7252721 246.772249,46.0027803 L246.768052,46.0027803 Z"/>
  </g>
</svg>
